<?xml version="1.0" encoding="UTF-8" standalone="no"?>
<!-- Created with Inkscape (http://www.inkscape.org/) -->

<svg
   xmlns:dc="http://purl.org/dc/elements/1.1/"
   xmlns:cc="http://creativecommons.org/ns#"
   xmlns:rdf="http://www.w3.org/1999/02/22-rdf-syntax-ns#"
   xmlns:svg="http://www.w3.org/2000/svg"
   xmlns="http://www.w3.org/2000/svg"
   xmlns:sodipodi="http://sodipodi.sourceforge.net/DTD/sodipodi-0.dtd"
   xmlns:inkscape="http://www.inkscape.org/namespaces/inkscape"
   width="3.8137207mm"
   height="5.1331921mm"
   viewBox="0 0 3.8137208 5.1331921"
   version="1.1"
   id="svg1115"
   inkscape:version="0.92.2 2405546, 2018-03-11"
   sodipodi:docname="damas_logo_small.svg"
   inkscape:export-filename="/home/agariepy/damas/ulaval-damas.github.io/assets/img/damas_logo_small.png"
   inkscape:export-xdpi="60.463974"
   inkscape:export-ydpi="60.463974">
  <defs
     id="defs1109" />
  <sodipodi:namedview
     id="base"
     pagecolor="#ffffff"
     bordercolor="#666666"
     borderopacity="1.0"
     inkscape:pageopacity="0.0"
     inkscape:pageshadow="2"
     inkscape:zoom="31.678384"
     inkscape:cx="12.506286"
     inkscape:cy="9.1960844"
     inkscape:document-units="mm"
     inkscape:current-layer="layer1"
     showgrid="false"
     inkscape:window-width="1920"
     inkscape:window-height="1016"
     inkscape:window-x="0"
     inkscape:window-y="27"
     inkscape:window-maximized="1" />
  <metadata
     id="metadata1112">
    <rdf:RDF>
      <cc:Work
         rdf:about="">
        <dc:format>image/svg+xml</dc:format>
        <dc:type
           rdf:resource="http://purl.org/dc/dcmitype/StillImage" />
        <dc:title />
      </cc:Work>
    </rdf:RDF>
  </metadata>
  <g
     inkscape:label="Layer 1"
     inkscape:groupmode="layer"
     id="layer1"
     transform="translate(244.63321,7.1933187)">
    <text
       xml:space="preserve"
       style="font-style:normal;font-weight:normal;font-size:3.99228358px;line-height:0;font-family:sans-serif;letter-spacing:0px;word-spacing:0px;fill:#ffb300;fill-opacity:1;stroke:none;stroke-width:0.14145888;stroke-miterlimit:4;stroke-dasharray:none;stroke-dashoffset:0"
       x="-245.0556"
       y="-2.1603525"
       id="text4520"><tspan
         sodipodi:role="line"
         id="tspan4518"
         x="-245.0556"
         y="-2.1603525"
         style="font-style:normal;font-variant:normal;font-weight:normal;font-stretch:normal;font-size:6.65380621px;line-height:0;font-family:Coda;-inkscape-font-specification:Coda;letter-spacing:-0.50153065px;fill:#ffb300;fill-opacity:1;stroke-width:0.14145888;stroke-miterlimit:4;stroke-dasharray:none;stroke-dashoffset:0"
         rotate="0"><tspan
           style="stroke:#232d33;stroke-width:0.14145888;stroke-miterlimit:4;stroke-dasharray:none;stroke-dashoffset:0;stroke-opacity:1"
           id="tspan5764">D</tspan><tspan
           style="font-style:normal;font-variant:normal;font-weight:normal;font-stretch:normal;line-height:0;font-family:Coda;-inkscape-font-specification:Coda;letter-spacing:-0.50153065px;fill:#232d33;fill-opacity:1;stroke-width:0.14145888;stroke-miterlimit:4;stroke-dasharray:none;stroke-dashoffset:0"
           id="tspan5729"
           rotate="0" /></tspan></text>
    <g
       id="g4891"
       transform="matrix(0.00727436,0,0,0.00727436,-244.37963,-6.4033926)"
       style="fill:#000000;fill-opacity:1;stroke:#000000;stroke-width:1.03406644;stroke-miterlimit:4;stroke-dasharray:none;stroke-opacity:1">
      <g
         id="g5179"
         transform="translate(-15.312936,21.438111)">
        <path
           inkscape:connector-curvature="0"
           id="path5170"
           d="M 231.50001,16.383999 198.14818,6.4989957 146.467,33.310999 110.8395,54.282803 91.394002,97.171002 55.386684,115.04493 42.875,178.344 35.213002,259.47501 35.9192,325.64764 56.515995,350.896 76.034003,407.647 105.79,427.563 l 34.54567,26.09806 41.29465,-2.94962 49.86969,-27.38545 41.56847,25.61566 38.93495,8.25893 44.24426,-43.65432 29.49619,-14.15819 L 406.484,350.896 429.98814,293.79178 427.78701,259.47501 439,223.5 406.98112,177.57683 413.47028,152.80004 394.00281,118.58447 371.60599,97.171002 363.32677,60.182039 296.07548,17.707545 268.93902,9.448615 231.50001,16.383999"
           style="fill:#ffffff;fill-opacity:1;stroke:none;stroke-width:26.42857552px;stroke-linecap:butt;stroke-linejoin:miter;stroke-opacity:1" />
        <g
           style="fill:#000000;fill-opacity:1;stroke:#000000;stroke-width:1.03406644;stroke-miterlimit:4;stroke-dasharray:none;stroke-opacity:1"
           id="g4831">
          <path
             style="fill:#000000;fill-opacity:1;stroke:#000000;stroke-width:1.03406644;stroke-miterlimit:4;stroke-dasharray:none;stroke-opacity:1"
             inkscape:connector-curvature="0"
             d="M 151.245,222.446 C 148.054,237.039 135.036,248 119.5,248 c -4.142,0 -7.5,3.357 -7.5,7.5 0,4.143 3.358,7.5 7.5,7.5 23.774,0 43.522,-17.557 46.966,-40.386 14.556,-1.574 27.993,-8.06 38.395,-18.677 2.899,-2.959 2.85,-7.708 -0.109,-10.606 -2.958,-2.897 -7.707,-2.851 -10.606,0.108 C 184.947,202.829 172.643,208 159.5,208 132.757,208 111,186.243 111,159.5 c 0,-4.143 -3.358,-7.5 -7.5,-7.5 -4.142,0 -7.5,3.357 -7.5,7.5 0,32.215 24.119,58.884 55.245,62.946 z"
             id="path4821" />
          <path
             style="fill:#000000;fill-opacity:1;stroke:#000000;stroke-width:1.03406644;stroke-miterlimit:4;stroke-dasharray:none;stroke-opacity:1"
             inkscape:connector-curvature="0"
             d="m 183,287.5 c 0,-4.143 -3.358,-7.5 -7.5,-7.5 -35.014,0 -63.5,28.486 -63.5,63.5 0,0.362 0.013,0.725 0.019,1.088 C 109.23,344.212 106.39,344 103.5,344 c -4.142,0 -7.5,3.357 -7.5,7.5 0,4.143 3.358,7.5 7.5,7.5 26.743,0 48.5,21.757 48.5,48.5 0,4.143 3.358,7.5 7.5,7.5 4.142,0 7.5,-3.357 7.5,-7.5 0,-26.611 -16.462,-49.437 -39.731,-58.867 -0.178,-1.699 -0.269,-3.418 -0.269,-5.133 0,-26.743 21.757,-48.5 48.5,-48.5 4.142,0 7.5,-3.357 7.5,-7.5 z"
             id="path4823" />
          <path
             style="fill:#000000;fill-opacity:1;stroke:#000000;stroke-width:1.03406644;stroke-miterlimit:4;stroke-dasharray:none;stroke-opacity:1"
             inkscape:connector-curvature="0"
             d="m 439,223.5 c 0,-17.075 -6.82,-33.256 -18.875,-45.156 C 422.034,172.236 423,165.918 423,159.5 423,128.626 400.848,102.841 371.606,97.171 373.841,91.6 375,85.628 375,79.5 375,59.943 363.117,43.113 346.194,35.839 317.999,13.383 287.162,0 263.5,0 250.347,0 238.683,6.468 231.5,16.384 224.317,6.468 212.653,0 199.5,0 175.838,0 145.001,13.383 116.806,35.839 99.883,43.113 88,59.943 88,79.5 88,85.628 89.159,91.6 91.394,97.171 62.152,102.841 40,128.626 40,159.5 c 0,6.418 0.965,12.735 2.875,18.844 C 30.82,190.244 24,206.425 24,223.5 c 0,13.348 4.149,25.741 11.213,35.975 C 27.872,270.087 24,282.466 24,295.5 c 0,23.088 12.587,44.242 32.516,55.396 -0.343,2.852 -0.516,5.73 -0.516,8.604 0,31.144 20.315,58.679 49.79,68.063 12.821,21.942 36.175,35.437 61.71,35.437 27.995,0 52.269,-16.181 64,-39.674 11.731,23.493 36.005,39.674 64,39.674 25.535,0 48.889,-13.495 61.71,-35.437 29.475,-9.385 49.79,-36.92 49.79,-68.063 0,-2.874 -0.173,-5.752 -0.516,-8.604 C 426.413,339.742 439,318.588 439,295.5 439,282.466 435.128,270.087 427.787,259.475 434.851,249.241 439,236.848 439,223.5 Z M 167.5,448 c -21.029,0 -40.191,-11.594 -50.009,-30.256 -0.973,-1.849 -2.671,-3.208 -4.688,-3.751 C 88.19,407.369 71,384.961 71,359.5 c 0,-3.81 0.384,-7.626 1.141,-11.344 0.702,-3.447 -1.087,-6.92 -4.302,-8.35 C 50.32,332.018 39,314.626 39,295.5 39,286.801 41.256,278.486 45.561,271.121 56.757,280.992 71.436,287 87.5,287 91.642,287 95,283.643 95,279.5 95,275.357 91.642,272 87.5,272 60.757,272 39,250.243 39,223.5 c 0,-14.396 6.352,-27.964 17.428,-37.221 2.5,-2.09 3.365,-5.555 2.14,-8.574 C 56.2,171.869 55,165.744 55,159.5 55,132.757 76.757,111 103.5,111 c 26.743,0 48.5,21.757 48.5,48.5 0,4.143 3.358,7.5 7.5,7.5 4.142,0 7.5,-3.357 7.5,-7.5 C 167,125.858 140.698,98.257 107.579,96.145 104.577,91.127 103,85.421 103,79.5 c 0,-13.369 8.116,-24.875 19.678,-29.859 0.447,-0.133 0.885,-0.307 1.308,-0.527 C 127.568,47.752 131.447,47 135.5,47 c 12.557,0 23.767,7.021 29.256,18.325 1.81,3.727 6.298,5.281 10.023,3.47 3.726,-1.809 5.28,-6.296 3.47,-10.022 C 171.983,45.87 160.124,36.596 146.467,33.311 165.609,21.631 184.454,15 199.5,15 213.009,15 224,25.99 224,39.5 v 97.051 C 217.261,131.205 208.75,128 199.5,128 c -4.142,0 -7.5,3.357 -7.5,7.5 0,4.143 3.358,7.5 7.5,7.5 13.509,0 24.5,10.99 24.5,24.5 v 180.279 c -9.325,-12.031 -22.471,-21.111 -37.935,-25.266 -3.999,-1.071 -8.114,1.297 -9.189,5.297 -1.075,4.001 1.297,8.115 5.297,9.189 C 206.8,343.616 224,366.027 224,391.5 224,422.654 198.654,448 167.5,448 Z M 395.161,339.807 c -3.215,1.43 -5.004,4.902 -4.302,8.35 0.757,3.718 1.141,7.534 1.141,11.344 0,25.461 -17.19,47.869 -41.803,54.493 -2.017,0.543 -3.716,1.902 -4.688,3.751 C 335.691,436.406 316.529,448 295.5,448 264.346,448 239,422.654 239,391.5 c 0,-2.109 -0.098,-4.2 -0.281,-6.271 0.178,-0.641 0.281,-1.314 0.281,-2.012 V 135.5 c 0,-13.51 10.991,-24.5 24.5,-24.5 4.142,0 7.5,-3.357 7.5,-7.5 0,-4.143 -3.358,-7.5 -7.5,-7.5 -9.25,0 -17.761,3.205 -24.5,8.551 V 39.5 C 239,25.99 249.991,15 263.5,15 c 15.046,0 33.891,6.631 53.033,18.311 -13.657,3.284 -25.516,12.559 -31.782,25.462 -1.81,3.727 -0.256,8.214 3.47,10.022 3.726,1.81 8.213,0.257 10.023,-3.47 C 303.733,54.021 314.943,47 327.5,47 c 4.053,0 7.933,0.752 11.514,2.114 0.422,0.22 0.86,0.393 1.305,0.526 C 351.883,54.624 360,66.13 360,79.5 c 0,5.921 -1.577,11.627 -4.579,16.645 C 322.302,98.257 296,125.858 296,159.5 c 0,4.143 3.358,7.5 7.5,7.5 4.142,0 7.5,-3.357 7.5,-7.5 0,-26.743 21.757,-48.5 48.5,-48.5 26.743,0 48.5,21.757 48.5,48.5 0,6.244 -1.2,12.369 -3.567,18.205 -1.225,3.02 -0.36,6.484 2.14,8.574 11.075,9.257 17.427,22.825 17.427,37.221 0,26.743 -21.757,48.5 -48.5,48.5 -4.142,0 -7.5,3.357 -7.5,7.5 0,4.143 3.358,7.5 7.5,7.5 16.064,0 30.743,-6.008 41.939,-15.879 4.306,7.365 6.561,15.68 6.561,24.379 0,19.126 -11.32,36.518 -28.839,44.307 z"
             id="path4825" />
          <path
             style="fill:#000000;fill-opacity:1;stroke:#000000;stroke-width:1.03406644;stroke-miterlimit:4;stroke-dasharray:none;stroke-opacity:1"
             inkscape:connector-curvature="0"
             d="M 359.5,240 C 343.964,240 330.946,229.039 327.755,214.446 358.881,210.384 383,183.715 383,151.5 c 0,-4.143 -3.358,-7.5 -7.5,-7.5 -4.142,0 -7.5,3.357 -7.5,7.5 0,26.743 -21.757,48.5 -48.5,48.5 -13.143,0 -25.447,-5.171 -34.646,-14.561 -2.898,-2.958 -7.647,-3.007 -10.606,-0.108 -2.959,2.899 -3.008,7.647 -0.109,10.606 10.402,10.617 23.839,17.103 38.395,18.677 3.444,22.829 23.192,40.386 46.966,40.386 4.142,0 7.5,-3.357 7.5,-7.5 0,-4.143 -3.358,-7.5 -7.5,-7.5 z"
             id="path4827" />
          <path
             style="fill:#000000;fill-opacity:1;stroke:#000000;stroke-width:1.03406644;stroke-miterlimit:4;stroke-dasharray:none;stroke-opacity:1"
             inkscape:connector-curvature="0"
             d="m 335.5,328 c -2.89,0 -5.73,0.212 -8.519,0.588 0.006,-0.363 0.019,-0.726 0.019,-1.088 0,-35.014 -28.486,-63.5 -63.5,-63.5 -4.142,0 -7.5,3.357 -7.5,7.5 0,4.143 3.358,7.5 7.5,7.5 26.743,0 48.5,21.757 48.5,48.5 0,1.714 -0.091,3.434 -0.269,5.133 C 288.462,342.063 272,364.889 272,391.5 c 0,4.143 3.358,7.5 7.5,7.5 4.142,0 7.5,-3.357 7.5,-7.5 0,-26.743 21.757,-48.5 48.5,-48.5 4.142,0 7.5,-3.357 7.5,-7.5 0,-4.143 -3.358,-7.5 -7.5,-7.5 z"
             id="path4829" />
        </g>
      </g>
      <g
         id="g4833"
         style="fill:#000000;fill-opacity:1;stroke:#000000;stroke-width:1.03406644;stroke-miterlimit:4;stroke-dasharray:none;stroke-opacity:1" />
      <g
         id="g4835"
         style="fill:#000000;fill-opacity:1;stroke:#000000;stroke-width:1.03406644;stroke-miterlimit:4;stroke-dasharray:none;stroke-opacity:1" />
      <g
         id="g4837"
         style="fill:#000000;fill-opacity:1;stroke:#000000;stroke-width:1.03406644;stroke-miterlimit:4;stroke-dasharray:none;stroke-opacity:1" />
      <g
         id="g4839"
         style="fill:#000000;fill-opacity:1;stroke:#000000;stroke-width:1.03406644;stroke-miterlimit:4;stroke-dasharray:none;stroke-opacity:1" />
      <g
         id="g4841"
         style="fill:#000000;fill-opacity:1;stroke:#000000;stroke-width:1.03406644;stroke-miterlimit:4;stroke-dasharray:none;stroke-opacity:1" />
      <g
         id="g4843"
         style="fill:#000000;fill-opacity:1;stroke:#000000;stroke-width:1.03406644;stroke-miterlimit:4;stroke-dasharray:none;stroke-opacity:1" />
      <g
         id="g4845"
         style="fill:#000000;fill-opacity:1;stroke:#000000;stroke-width:1.03406644;stroke-miterlimit:4;stroke-dasharray:none;stroke-opacity:1" />
      <g
         id="g4847"
         style="fill:#000000;fill-opacity:1;stroke:#000000;stroke-width:1.03406644;stroke-miterlimit:4;stroke-dasharray:none;stroke-opacity:1" />
      <g
         id="g4849"
         style="fill:#000000;fill-opacity:1;stroke:#000000;stroke-width:1.03406644;stroke-miterlimit:4;stroke-dasharray:none;stroke-opacity:1" />
      <g
         id="g4851"
         style="fill:#000000;fill-opacity:1;stroke:#000000;stroke-width:1.03406644;stroke-miterlimit:4;stroke-dasharray:none;stroke-opacity:1" />
      <g
         id="g4853"
         style="fill:#000000;fill-opacity:1;stroke:#000000;stroke-width:1.03406644;stroke-miterlimit:4;stroke-dasharray:none;stroke-opacity:1" />
      <g
         id="g4855"
         style="fill:#000000;fill-opacity:1;stroke:#000000;stroke-width:1.03406644;stroke-miterlimit:4;stroke-dasharray:none;stroke-opacity:1" />
      <g
         id="g4857"
         style="fill:#000000;fill-opacity:1;stroke:#000000;stroke-width:1.03406644;stroke-miterlimit:4;stroke-dasharray:none;stroke-opacity:1" />
      <g
         id="g4859"
         style="fill:#000000;fill-opacity:1;stroke:#000000;stroke-width:1.03406644;stroke-miterlimit:4;stroke-dasharray:none;stroke-opacity:1" />
      <g
         id="g4861"
         style="fill:#000000;fill-opacity:1;stroke:#000000;stroke-width:1.03406644;stroke-miterlimit:4;stroke-dasharray:none;stroke-opacity:1" />
    </g>
    <path
       style="fill:#232d33;fill-opacity:1;stroke:#232d33;stroke-width:0.00446547;stroke-miterlimit:4;stroke-dasharray:none;stroke-dashoffset:0;stroke-opacity:1"
       d="m -243.65431,-4.3508587 c -0.0201,-0.020079 -0.0214,-0.056998 -0.003,-0.073327 0.008,-0.00661 0.0333,-0.01448 0.0571,-0.017494 0.0871,-0.011014 0.15752,-0.060183 0.19273,-0.1346133 0.0109,-0.023175 0.0199,-0.043913 0.0199,-0.046084 0,-0.00217 -0.0292,-0.012917 -0.065,-0.023878 -0.13253,-0.040644 -0.22968,-0.1221741 -0.28915,-0.2426665 -0.0355,-0.07205 -0.0377,-0.079883 -0.0448,-0.1606589 -0.005,-0.050382 -0.003,-0.057738 0.0119,-0.072859 0.038,-0.037985 0.0857,-0.00735 0.0914,0.058699 0.005,0.06003 0.011,0.082122 0.0358,0.135369 0.0621,0.1338368 0.22763,0.2186439 0.37381,0.19156 0.0619,-0.011485 0.13316,-0.045522 0.17996,-0.086066 0.0208,-0.018053 0.0432,-0.032823 0.0498,-0.032823 0.0376,0 0.0654,0.042693 0.0482,0.074128 -0.0307,0.056299 -0.19311,0.1478084 -0.26304,0.1482733 -0.016,1.064e-4 -0.0341,0.025334 -0.0343,0.047742 -2e-4,0.024406 -0.0428,0.096813 -0.0803,0.1364311 -0.0639,0.067578 -0.13354,0.102559 -0.22019,0.110617 -0.038,0.00354 -0.047,0.00173 -0.061,-0.012351 z"
       id="path5766"
       inkscape:connector-curvature="0" />
    <path
       style="fill:#232d33;fill-opacity:1;stroke:#232d33;stroke-width:0.00446547;stroke-miterlimit:4;stroke-dasharray:none;stroke-dashoffset:0;stroke-opacity:1"
       d="m -243.4011,-2.9003944 c -0.11742,-0.031224 -0.2099,-0.09314 -0.285,-0.1908137 -0.034,-0.044209 -0.0455,-0.053324 -0.0861,-0.067916 -0.13361,-0.048085 -0.25636,-0.1919974 -0.29585,-0.3468775 -0.007,-0.026618 -0.0125,-0.079785 -0.0125,-0.1181489 l -2.1e-4,-0.069752 -0.0396,-0.026849 c -0.18473,-0.1253373 -0.24837,-0.3817377 -0.14549,-0.5862257 l 0.027,-0.05352 -0.027,-0.052614 c -0.0829,-0.161902 -0.0616,-0.35745 0.0546,-0.5000984 0.0285,-0.034985 0.033,-0.044923 0.0262,-0.05718 -0.0151,-0.027007 -0.0167,-0.1677001 -0.003,-0.2240548 0.0379,-0.1503405 0.15705,-0.2815407 0.3005,-0.3308941 0.0246,-0.00848 0.0486,-0.013108 0.0531,-0.01029 0.006,0.00332 0.007,-1.904e-4 0.003,-0.00993 -0.0266,-0.069411 -0.0252,-0.1762672 0.004,-0.2513913 0.0215,-0.056533 0.089,-0.1295656 0.16177,-0.1749698 0.0263,-0.016402 0.0866,-0.056044 0.13391,-0.088093 0.10183,-0.068913 0.21915,-0.1264323 0.31572,-0.1547898 0.11232,-0.032986 0.18474,-0.037824 0.25495,-0.017034 0.0481,0.014254 0.11,0.052041 0.13294,0.081198 0.0195,0.024844 0.0242,0.024078 0.0564,-0.00916 0.0688,-0.071241 0.15117,-0.09491 0.27525,-0.079138 0.0458,0.00583 0.0622,0.00945 0.0887,0.019689 0.0119,0.00461 0.0217,0.00626 0.0217,0.00367 0,-0.00259 0.005,-0.00134 0.01,0.00278 0.006,0.00411 0.0275,0.013937 0.0492,0.021823 0.0675,0.024586 0.17023,0.079167 0.24704,0.1312971 0.0405,0.02753 0.0971,0.064792 0.12559,0.082806 0.15444,0.0976 0.22134,0.2519616 0.17524,0.4043461 -0.0114,0.03777 -0.0118,0.037037 0.0198,0.042954 0.0424,0.00797 0.12096,0.043288 0.16268,0.073216 0.075,0.053774 0.13869,0.1485963 0.16797,0.2499851 0.016,0.055356 0.0183,0.1728375 0.005,0.2229903 -0.009,0.033496 -0.009,0.034114 0.0226,0.070164 0.0649,0.073699 0.10267,0.1813231 0.10267,0.2923588 0,0.079589 -0.0159,0.1459767 -0.0509,0.2121501 l -0.026,0.049229 0.0263,0.04962 c 0.0356,0.067001 0.0506,0.1294381 0.0506,0.2103073 0,0.078764 -0.0143,0.141719 -0.0482,0.2112042 -0.026,0.053417 -0.0969,0.1348524 -0.14845,0.1706152 l -0.0318,0.02203 v 0.054397 c 0,0.133497 -0.0509,0.265241 -0.13934,0.3607854 -0.0282,0.030399 -0.0542,0.055271 -0.0579,0.055271 -0.004,0 -0.0226,0.010734 -0.0421,0.023854 -0.037,0.02493 -0.10731,0.059181 -0.11651,0.056716 -0.003,-7.983e-4 -0.0218,0.021574 -0.0419,0.049689 -0.0665,0.093155 -0.17442,0.1659875 -0.29153,0.1966999 -0.0435,0.011393 -0.16563,0.016239 -0.2168,0.0086 -0.0443,-0.00662 -0.13758,-0.044805 -0.18525,-0.075862 -0.0561,-0.036559 -0.13531,-0.1168662 -0.16291,-0.1652148 -0.01,-0.017242 -0.0206,-0.031377 -0.0237,-0.031411 -0.003,-3.14e-5 -0.0153,0.015003 -0.0268,0.033415 -0.0953,0.151831 -0.25273,0.2407382 -0.4332,0.2446648 -0.0493,0.00108 -0.0863,-0.00339 -0.13483,-0.016301 z m 0.24168,-0.1016393 c 0.0648,-0.016775 0.11725,-0.048297 0.17479,-0.1050525 0.0865,-0.085328 0.12705,-0.186234 0.12184,-0.3032596 -0.006,-0.1282412 -0.0394,-0.2038071 -0.12914,-0.2893764 -0.0473,-0.045113 -0.0816,-0.065804 -0.1535,-0.092724 -0.0484,-0.018112 -0.0653,-0.041986 -0.0527,-0.074851 0.0102,-0.026814 0.0383,-0.036497 0.0761,-0.026226 0.058,0.01575 0.15123,0.070739 0.2034,0.1199194 0.0286,0.026902 0.0536,0.047235 0.0556,0.045186 0.002,-0.00205 0.004,-0.301778 0.004,-0.6660644 -1.9e-4,-0.4772365 -0.003,-0.6706104 -0.009,-0.6919379 -0.0192,-0.062726 -0.0812,-0.1125314 -0.15026,-0.1207209 -0.0483,-0.00573 -0.0687,-0.021537 -0.0687,-0.053163 0,-0.063919 0.0719,-0.072588 0.17507,-0.021081 0.0264,0.013189 0.0492,0.02398 0.0508,0.02398 0.002,0 0.003,-0.1672672 0.003,-0.3717049 -4.9e-4,-0.4187804 7.8e-4,-0.4089749 -0.0606,-0.4642325 -0.0441,-0.039772 -0.0775,-0.049068 -0.15578,-0.043398 -0.062,0.0045 -0.0733,0.00642 -0.10447,0.018031 -0.008,0.00282 -0.0201,0.00636 -0.0277,0.00786 -0.039,0.00765 -0.21838,0.094285 -0.21838,0.1055161 0,0.0027 0.005,0.00492 0.01,0.00495 0.0222,1.068e-4 0.10605,0.048323 0.1436,0.082609 0.0221,0.020191 0.0502,0.054967 0.0622,0.077281 0.0192,0.035371 0.0209,0.043407 0.0129,0.062695 -0.0221,0.053257 -0.0688,0.044412 -0.10674,-0.020161 -0.0202,-0.034439 -0.0687,-0.076368 -0.10459,-0.090317 -0.12146,-0.047251 -0.24894,-0.00154 -0.30667,0.109977 -0.0223,0.042952 -0.0257,0.057309 -0.0253,0.1060909 5.6e-4,0.07419 0.0199,0.1269228 0.0471,0.1282807 0.13079,0.00654 0.28841,0.1090994 0.35251,0.2293479 0.0417,0.078241 0.0545,0.1189459 0.0611,0.1934824 0.004,0.042625 0.003,0.047302 -0.0192,0.06892 -0.0274,0.027422 -0.0319,0.028018 -0.0577,0.0077 -0.014,-0.01107 -0.0212,-0.026266 -0.0249,-0.053167 -0.0113,-0.082039 -0.0145,-0.094534 -0.0364,-0.1420983 -0.0392,-0.084948 -0.13751,-0.169906 -0.2167,-0.1872469 -0.0463,-0.010134 -0.10796,-0.018257 -0.11679,-0.015381 -0.005,0.00161 -0.0214,0.00469 -0.0366,0.00682 -0.0852,0.012015 -0.14796,0.043961 -0.20497,0.1042415 -0.0901,0.095244 -0.12276,0.2355903 -0.0819,0.3515348 0.0171,0.04839 0.014,0.063011 -0.0208,0.096884 -0.0769,0.074979 -0.10968,0.1563692 -0.10687,0.2651142 9.4e-4,0.040265 0.005,0.083744 0.008,0.096621 0.0202,0.079824 0.10707,0.1812909 0.18775,0.2191823 0.0455,0.021414 0.12749,0.040916 0.13981,0.033299 0.0109,-0.00677 0.0523,0.016123 0.0597,0.032971 0.0113,0.026199 0.0101,0.033035 -0.01,0.054188 -0.0186,0.020091 -0.0222,0.020867 -0.0732,0.016129 -0.0777,-0.00722 -0.14994,-0.03208 -0.20982,-0.072229 -0.0289,-0.019366 -0.0552,-0.035211 -0.0584,-0.035211 -0.0166,0 -0.0503,0.1169173 -0.0499,0.1732848 8.6e-4,0.131065 0.0713,0.2500268 0.18661,0.315097 0.0497,0.028036 0.0602,0.041685 0.0542,0.070856 -0.006,0.028259 -0.006,0.1324051 5.9e-4,0.1688597 0.009,0.056536 0.0572,0.144207 0.10827,0.1973056 0.0451,0.046914 0.13196,0.1025039 0.1698,0.1086049 0.0256,0.00412 0.0388,0.016104 0.0722,0.065874 0.0569,0.08446 0.15277,0.1537476 0.24283,0.1754262 0.0448,0.010782 0.16581,0.00824 0.21508,-0.00451 z m 0.92609,0.00229 c 0.013,-0.00293 0.0486,-0.017491 0.0791,-0.03236 0.0582,-0.028336 0.12503,-0.090753 0.17356,-0.1620665 0.0189,-0.027745 0.032,-0.037963 0.059,-0.045944 0.0891,-0.026294 0.18777,-0.10852 0.23344,-0.1946178 0.0384,-0.07237 0.0496,-0.1259361 0.0466,-0.2228305 -0.002,-0.045986 -9.5e-4,-0.088036 9.4e-4,-0.093442 0.002,-0.0054 0.0244,-0.020914 0.0498,-0.03446 0.0821,-0.043763 0.15738,-0.1431399 0.17824,-0.2353289 0.0117,-0.051782 0.006,-0.1505179 -0.0131,-0.1987342 -0.009,-0.024827 -0.0204,-0.047171 -0.0244,-0.049653 -0.004,-0.00247 -0.0224,0.00581 -0.0408,0.018434 -0.0784,0.053618 -0.16757,0.084842 -0.24134,0.084482 -0.0451,-2.205e-4 -0.0519,-0.0024 -0.066,-0.021222 -0.019,-0.025244 -0.0139,-0.056863 0.0113,-0.070326 0.009,-0.00498 0.0373,-0.010297 0.062,-0.011822 0.13305,-0.00817 0.26514,-0.1150766 0.30448,-0.2464234 0.0143,-0.0479 0.0178,-0.135574 0.008,-0.1860631 -0.0111,-0.053678 -0.0433,-0.1113432 -0.092,-0.1652152 -0.0489,-0.054037 -0.0518,-0.060929 -0.039,-0.094595 0.0135,-0.035552 0.0184,-0.069163 0.0184,-0.1261333 0,-0.07203 -0.006,-0.1003628 -0.034,-0.1576623 -0.10506,-0.2162968 -0.39882,-0.2627916 -0.56833,-0.08995 -0.0657,0.06701 -0.0984,0.1431723 -0.10074,0.2344378 -4.4e-4,0.017884 -0.008,0.033515 -0.0237,0.049229 -0.0276,0.027678 -0.0332,0.028173 -0.0594,0.0053 -0.0172,-0.01503 -0.0203,-0.024304 -0.0202,-0.061043 1.1e-4,-0.073447 0.008,-0.099932 0.05,-0.1890383 0.0315,-0.065503 0.12397,-0.1597867 0.19138,-0.195097 0.0504,-0.026383 0.13629,-0.052437 0.16634,-0.050444 0.0468,0.0031 0.0702,-0.1424573 0.0355,-0.2208205 -0.0366,-0.082719 -0.12013,-0.1410553 -0.20453,-0.1428278 -0.0871,-0.00183 -0.14024,0.020808 -0.19217,0.081969 -0.0541,0.063787 -0.0759,0.086131 -0.0839,0.086131 -0.004,0 -0.0168,-0.00735 -0.0282,-0.016325 -0.0295,-0.023195 -0.0274,-0.056631 0.007,-0.1070425 0.015,-0.022249 0.0426,-0.053036 0.0614,-0.068414 0.0336,-0.027527 0.11071,-0.067918 0.12997,-0.068069 0.0238,-1.855e-4 0.006,-0.016391 -0.0528,-0.046692 -0.062,-0.032218 -0.14772,-0.067368 -0.18301,-0.074986 -0.01,-0.00216 -0.0324,-0.00757 -0.0497,-0.012042 -0.0411,-0.010586 -0.12753,-0.00866 -0.15754,0.00352 -0.0482,0.019568 -0.0893,0.065445 -0.10474,0.1171091 -0.006,0.019269 -0.0118,0.499727 -0.007,0.5136835 0.002,0.00599 0.022,-8.18e-5 0.0575,-0.017747 0.071,-0.03525 0.13745,-0.039975 0.1606,-0.011424 0.0316,0.038949 0.009,0.074204 -0.0526,0.083498 -0.0812,0.012178 -0.14516,0.06827 -0.1609,0.1411376 -0.0102,0.047298 -0.007,1.9443473 0.004,1.9897827 0.034,0.1490808 0.13767,0.2597342 0.28829,0.3079024 0.044,0.014078 0.17028,0.016471 0.22448,0.00425 z"
       id="path5768"
       inkscape:connector-curvature="0" />
    <path
       style="fill:#232d33;fill-opacity:1;stroke:#232d33;stroke-width:0.00446547;stroke-miterlimit:4;stroke-dasharray:none;stroke-dashoffset:0;stroke-opacity:1"
       d="m -242.01607,-4.427174 c -0.0921,-0.042665 -0.1635,-0.1264837 -0.18928,-0.2222436 -0.007,-0.024061 -0.0146,-0.035816 -0.0287,-0.041129 -0.0108,-0.00409 -0.0221,-0.00675 -0.0252,-0.0059 -0.0112,0.00306 -0.0932,-0.02777 -0.13233,-0.049768 -0.0221,-0.012385 -0.0566,-0.03707 -0.0768,-0.054855 -0.0449,-0.039497 -0.0504,-0.074276 -0.0159,-0.1013157 0.0114,-0.00898 0.0235,-0.016325 0.0269,-0.016325 0.004,0 0.0258,0.016019 0.0498,0.035597 0.0462,0.037615 0.10407,0.069827 0.14305,0.0796 0.0129,0.00323 0.0608,0.0061 0.10655,0.00638 0.0803,4.916e-4 0.0851,-4.466e-4 0.14185,-0.028521 0.12511,-0.061838 0.19945,-0.1770448 0.20364,-0.315572 0.002,-0.049509 0.0639,-0.071521 0.094,-0.033188 0.0171,0.021668 0.0167,0.036905 -0.004,0.1493683 -0.002,0.00867 -0.0168,0.044109 -0.0339,0.078766 -0.0371,0.075168 -0.10053,0.1476006 -0.16109,0.1839548 -0.0499,0.029977 -0.13226,0.064807 -0.16052,0.06791 -0.0316,0.00347 -0.0343,0.013754 -0.0146,0.055476 0.0328,0.069561 0.10269,0.1244243 0.17006,0.1334371 0.0823,0.011014 0.0945,0.018963 0.0945,0.061587 0,0.053653 -0.0912,0.06176 -0.18839,0.016745 z"
       id="path5770"
       inkscape:connector-curvature="0" />
    <path
       style="fill:#232d33;fill-opacity:1;stroke:#232d33;stroke-width:0.00446547;stroke-miterlimit:4;stroke-dasharray:none;stroke-dashoffset:0;stroke-opacity:1"
       d="m -242.48906,-3.3588199 c -0.0138,-0.0087 -0.0229,-0.080672 -0.0146,-0.1145386 0.003,-0.012997 0.008,-0.033419 0.01,-0.045384 0.002,-0.011965 0.0169,-0.048966 0.0328,-0.082225 0.036,-0.07487 0.1254,-0.167729 0.19481,-0.2023698 l 0.0456,-0.022791 -0.002,-0.052036 c -0.005,-0.1727459 -0.136,-0.3191513 -0.30101,-0.3361466 -0.0561,-0.00577 -0.0896,-0.017362 -0.0964,-0.033304 -0.0199,-0.046501 0.006,-0.072083 0.0717,-0.072923 0.0257,-3.244e-4 0.0584,0.00296 0.0726,0.0073 0.0141,0.00434 0.0274,0.00821 0.0294,0.00861 0.0535,0.010435 0.13504,0.060457 0.19297,0.1183851 0.0865,0.086513 0.13536,0.1913729 0.13437,0.2884864 l -4e-4,0.040318 0.0446,0.00102 c 0.0487,0.00112 0.0694,0.013349 0.0753,0.044574 0.007,0.035117 -0.0219,0.054324 -0.0925,0.062058 -0.0835,0.00914 -0.15526,0.043992 -0.21341,0.1035584 -0.0617,0.063163 -0.0835,0.1147973 -0.10194,0.2415326 -0.002,0.016106 -0.01,0.034715 -0.0163,0.041352 -0.0134,0.013406 -0.048,0.015782 -0.0658,0.00452 z"
       id="path5772"
       inkscape:connector-curvature="0" />
    <path
       style="fill:#232d33;fill-opacity:1;stroke:#232d33;stroke-width:0.00446547;stroke-miterlimit:4;stroke-dasharray:none;stroke-dashoffset:0;stroke-opacity:1"
       d="m -243.35757,-3.2407461 c -0.014,-0.011072 -0.0212,-0.026266 -0.0249,-0.053167 -0.003,-0.020717 -0.007,-0.050072 -0.009,-0.065234 -0.008,-0.053345 -0.0561,-0.1379354 -0.10305,-0.1808618 -0.0619,-0.056583 -0.1124,-0.0811 -0.18787,-0.091224 -0.0855,-0.011473 -0.10633,-0.022968 -0.10633,-0.058732 0,-0.029872 0.0258,-0.05023 0.0654,-0.051548 0.0547,-0.00182 0.0549,-0.00192 0.0506,-0.024076 -0.006,-0.029639 0.0218,-0.1330273 0.0506,-0.1901207 0.0481,-0.095553 0.1478,-0.1846691 0.24972,-0.2231048 0.0581,-0.021918 0.0744,-0.025157 0.13186,-0.026198 0.0566,-0.00102 0.0741,0.0099 0.0741,0.046132 0,0.033305 -0.0221,0.052457 -0.0646,0.0561 -0.0187,0.00159 -0.0427,0.00493 -0.0536,0.00741 -0.0109,0.00247 -0.0285,0.00631 -0.0392,0.00852 -0.0737,0.015151 -0.16814,0.09961 -0.20999,0.1877286 -0.0245,0.051601 -0.0282,0.067346 -0.0292,0.1237574 l -9.4e-4,0.064634 0.0509,0.02891 c 0.0784,0.044508 0.14202,0.1122915 0.1844,0.1963099 0.0197,0.039176 0.0345,0.071228 0.0328,0.071228 -0.002,0 2.8e-4,0.01152 0.005,0.025598 0.004,0.01408 0.009,0.04601 0.0118,0.070957 0.004,0.042493 0.003,0.046845 -0.0193,0.06892 -0.0278,0.027812 -0.0323,0.028424 -0.0581,0.00806 z"
       id="path5774"
       inkscape:connector-curvature="0" />
  </g>
</svg>
