<?xml version="1.0" encoding="UTF-8" standalone="no"?>
<!-- Created with Inkscape (http://www.inkscape.org/) -->

<svg
   xmlns:dc="http://purl.org/dc/elements/1.1/"
   xmlns:cc="http://creativecommons.org/ns#"
   xmlns:rdf="http://www.w3.org/1999/02/22-rdf-syntax-ns#"
   xmlns:svg="http://www.w3.org/2000/svg"
   xmlns="http://www.w3.org/2000/svg"
   xmlns:sodipodi="http://sodipodi.sourceforge.net/DTD/sodipodi-0.dtd"
   xmlns:inkscape="http://www.inkscape.org/namespaces/inkscape"
   width="20.902384mm"
   height="9.7644901mm"
   viewBox="0 0 20.902384 9.7644899"
   version="1.1"
   id="svg8"
   inkscape:version="0.92.2 2405546, 2018-03-11"
   sodipodi:docname="damas_logo.svg"
   inkscape:export-filename="/tmp/toto.png"
   inkscape:export-xdpi="1215.17"
   inkscape:export-ydpi="1215.17">
  <defs
     id="defs2" />
  <sodipodi:namedview
     id="base"
     pagecolor="#ffffff"
     bordercolor="#666666"
     borderopacity="1.0"
     inkscape:pageopacity="0"
     inkscape:pageshadow="2"
     inkscape:zoom="11.2"
     inkscape:cx="39.663908"
     inkscape:cy="8.9427552"
     inkscape:document-units="mm"
     inkscape:current-layer="layer1"
     showgrid="false"
     inkscape:window-width="1920"
     inkscape:window-height="1016"
     inkscape:window-x="0"
     inkscape:window-y="27"
     inkscape:window-maximized="1"
     inkscape:pagecheckerboard="false" />
  <metadata
     id="metadata5">
    <rdf:RDF>
      <cc:Work
         rdf:about="">
        <dc:format>image/svg+xml</dc:format>
        <dc:type
           rdf:resource="http://purl.org/dc/dcmitype/StillImage" />
        <dc:title></dc:title>
      </cc:Work>
    </rdf:RDF>
  </metadata>
  <g
     inkscape:label="Layer 1"
     inkscape:groupmode="layer"
     id="layer1"
     transform="translate(-40.335858,-37.605907)">
    <text
       xml:space="preserve"
       style="font-style:normal;font-weight:normal;font-size:4.23333311px;line-height:0;font-family:sans-serif;letter-spacing:0px;word-spacing:0px;fill:#ffb300;fill-opacity:1;stroke:none;stroke-width:0.15000001;stroke-miterlimit:4;stroke-dasharray:none;stroke-dashoffset:0"
       x="40.090427"
       y="42.818336"
       id="text4520"><tspan
         sodipodi:role="line"
         id="tspan4518"
         x="40.090427"
         y="42.818336"
         style="font-style:normal;font-variant:normal;font-weight:normal;font-stretch:normal;font-size:7.05555534px;line-height:0;font-family:Coda;-inkscape-font-specification:Coda;letter-spacing:-0.53181249px;fill:#ffb300;fill-opacity:1;stroke-width:0.15000001;stroke-miterlimit:4;stroke-dasharray:none;stroke-dashoffset:0"
         rotate="0 0"><tspan
           style="stroke:#232d33;stroke-width:0.15000001;stroke-miterlimit:4;stroke-dasharray:none;stroke-dashoffset:0;stroke-opacity:1"
           id="tspan5764">D</tspan><tspan
           style="font-style:normal;font-variant:normal;font-weight:normal;font-stretch:normal;line-height:0;font-family:Coda;-inkscape-font-specification:Coda;letter-spacing:-0.53181249px;fill:#232d33;fill-opacity:1;stroke-width:0.15000001;stroke-miterlimit:4;stroke-dasharray:none;stroke-dashoffset:0"
           id="tspan5729"
           rotate="0 0 0 0 0">AMAS</tspan></tspan></text>
    <g
       id="g4891"
       transform="matrix(0.00771358,0,0,0.00771358,40.807202,38.319107)"
       style="fill:#000000;fill-opacity:1;stroke:#000000;stroke-width:1.03406644;stroke-miterlimit:4;stroke-dasharray:none;stroke-opacity:1">
      <g
         id="g5179"
         transform="translate(-15.312936,21.438111)">
        <path
           inkscape:connector-curvature="0"
           id="path5170"
           d="M 231.50001,16.383999 198.14818,6.4989957 146.467,33.310999 110.8395,54.282803 91.394002,97.171002 55.386684,115.04493 42.875,178.344 35.213002,259.47501 35.9192,325.64764 56.515995,350.896 76.034003,407.647 105.79,427.563 l 34.54567,26.09806 41.29465,-2.94962 49.86969,-27.38545 41.56847,25.61566 38.93495,8.25893 44.24426,-43.65432 29.49619,-14.15819 L 406.484,350.896 429.98814,293.79178 427.78701,259.47501 439,223.5 406.98112,177.57683 413.47028,152.80004 394.00281,118.58447 371.60599,97.171002 363.32677,60.182039 296.07548,17.707545 268.93902,9.448615 231.50001,16.383999"
           style="fill:#ffffff;fill-opacity:1;stroke:none;stroke-width:26.42857552px;stroke-linecap:butt;stroke-linejoin:miter;stroke-opacity:1" />
        <g
           style="fill:#000000;fill-opacity:1;stroke:#000000;stroke-width:1.03406644;stroke-miterlimit:4;stroke-dasharray:none;stroke-opacity:1"
           id="g4831">
          <path
             style="fill:#000000;fill-opacity:1;stroke:#000000;stroke-width:1.03406644;stroke-miterlimit:4;stroke-dasharray:none;stroke-opacity:1"
             inkscape:connector-curvature="0"
             d="M 151.245,222.446 C 148.054,237.039 135.036,248 119.5,248 c -4.142,0 -7.5,3.357 -7.5,7.5 0,4.143 3.358,7.5 7.5,7.5 23.774,0 43.522,-17.557 46.966,-40.386 14.556,-1.574 27.993,-8.06 38.395,-18.677 2.899,-2.959 2.85,-7.708 -0.109,-10.606 -2.958,-2.897 -7.707,-2.851 -10.606,0.108 C 184.947,202.829 172.643,208 159.5,208 132.757,208 111,186.243 111,159.5 c 0,-4.143 -3.358,-7.5 -7.5,-7.5 -4.142,0 -7.5,3.357 -7.5,7.5 0,32.215 24.119,58.884 55.245,62.946 z"
             id="path4821" />
          <path
             style="fill:#000000;fill-opacity:1;stroke:#000000;stroke-width:1.03406644;stroke-miterlimit:4;stroke-dasharray:none;stroke-opacity:1"
             inkscape:connector-curvature="0"
             d="m 183,287.5 c 0,-4.143 -3.358,-7.5 -7.5,-7.5 -35.014,0 -63.5,28.486 -63.5,63.5 0,0.362 0.013,0.725 0.019,1.088 C 109.23,344.212 106.39,344 103.5,344 c -4.142,0 -7.5,3.357 -7.5,7.5 0,4.143 3.358,7.5 7.5,7.5 26.743,0 48.5,21.757 48.5,48.5 0,4.143 3.358,7.5 7.5,7.5 4.142,0 7.5,-3.357 7.5,-7.5 0,-26.611 -16.462,-49.437 -39.731,-58.867 -0.178,-1.699 -0.269,-3.418 -0.269,-5.133 0,-26.743 21.757,-48.5 48.5,-48.5 4.142,0 7.5,-3.357 7.5,-7.5 z"
             id="path4823" />
          <path
             style="fill:#000000;fill-opacity:1;stroke:#000000;stroke-width:1.03406644;stroke-miterlimit:4;stroke-dasharray:none;stroke-opacity:1"
             inkscape:connector-curvature="0"
             d="m 439,223.5 c 0,-17.075 -6.82,-33.256 -18.875,-45.156 C 422.034,172.236 423,165.918 423,159.5 423,128.626 400.848,102.841 371.606,97.171 373.841,91.6 375,85.628 375,79.5 375,59.943 363.117,43.113 346.194,35.839 317.999,13.383 287.162,0 263.5,0 250.347,0 238.683,6.468 231.5,16.384 224.317,6.468 212.653,0 199.5,0 175.838,0 145.001,13.383 116.806,35.839 99.883,43.113 88,59.943 88,79.5 88,85.628 89.159,91.6 91.394,97.171 62.152,102.841 40,128.626 40,159.5 c 0,6.418 0.965,12.735 2.875,18.844 C 30.82,190.244 24,206.425 24,223.5 c 0,13.348 4.149,25.741 11.213,35.975 C 27.872,270.087 24,282.466 24,295.5 c 0,23.088 12.587,44.242 32.516,55.396 -0.343,2.852 -0.516,5.73 -0.516,8.604 0,31.144 20.315,58.679 49.79,68.063 12.821,21.942 36.175,35.437 61.71,35.437 27.995,0 52.269,-16.181 64,-39.674 11.731,23.493 36.005,39.674 64,39.674 25.535,0 48.889,-13.495 61.71,-35.437 29.475,-9.385 49.79,-36.92 49.79,-68.063 0,-2.874 -0.173,-5.752 -0.516,-8.604 C 426.413,339.742 439,318.588 439,295.5 439,282.466 435.128,270.087 427.787,259.475 434.851,249.241 439,236.848 439,223.5 Z M 167.5,448 c -21.029,0 -40.191,-11.594 -50.009,-30.256 -0.973,-1.849 -2.671,-3.208 -4.688,-3.751 C 88.19,407.369 71,384.961 71,359.5 c 0,-3.81 0.384,-7.626 1.141,-11.344 0.702,-3.447 -1.087,-6.92 -4.302,-8.35 C 50.32,332.018 39,314.626 39,295.5 39,286.801 41.256,278.486 45.561,271.121 56.757,280.992 71.436,287 87.5,287 91.642,287 95,283.643 95,279.5 95,275.357 91.642,272 87.5,272 60.757,272 39,250.243 39,223.5 c 0,-14.396 6.352,-27.964 17.428,-37.221 2.5,-2.09 3.365,-5.555 2.14,-8.574 C 56.2,171.869 55,165.744 55,159.5 55,132.757 76.757,111 103.5,111 c 26.743,0 48.5,21.757 48.5,48.5 0,4.143 3.358,7.5 7.5,7.5 4.142,0 7.5,-3.357 7.5,-7.5 C 167,125.858 140.698,98.257 107.579,96.145 104.577,91.127 103,85.421 103,79.5 c 0,-13.369 8.116,-24.875 19.678,-29.859 0.447,-0.133 0.885,-0.307 1.308,-0.527 C 127.568,47.752 131.447,47 135.5,47 c 12.557,0 23.767,7.021 29.256,18.325 1.81,3.727 6.298,5.281 10.023,3.47 3.726,-1.809 5.28,-6.296 3.47,-10.022 C 171.983,45.87 160.124,36.596 146.467,33.311 165.609,21.631 184.454,15 199.5,15 213.009,15 224,25.99 224,39.5 v 97.051 C 217.261,131.205 208.75,128 199.5,128 c -4.142,0 -7.5,3.357 -7.5,7.5 0,4.143 3.358,7.5 7.5,7.5 13.509,0 24.5,10.99 24.5,24.5 v 180.279 c -9.325,-12.031 -22.471,-21.111 -37.935,-25.266 -3.999,-1.071 -8.114,1.297 -9.189,5.297 -1.075,4.001 1.297,8.115 5.297,9.189 C 206.8,343.616 224,366.027 224,391.5 224,422.654 198.654,448 167.5,448 Z M 395.161,339.807 c -3.215,1.43 -5.004,4.902 -4.302,8.35 0.757,3.718 1.141,7.534 1.141,11.344 0,25.461 -17.19,47.869 -41.803,54.493 -2.017,0.543 -3.716,1.902 -4.688,3.751 C 335.691,436.406 316.529,448 295.5,448 264.346,448 239,422.654 239,391.5 c 0,-2.109 -0.098,-4.2 -0.281,-6.271 0.178,-0.641 0.281,-1.314 0.281,-2.012 V 135.5 c 0,-13.51 10.991,-24.5 24.5,-24.5 4.142,0 7.5,-3.357 7.5,-7.5 0,-4.143 -3.358,-7.5 -7.5,-7.5 -9.25,0 -17.761,3.205 -24.5,8.551 V 39.5 C 239,25.99 249.991,15 263.5,15 c 15.046,0 33.891,6.631 53.033,18.311 -13.657,3.284 -25.516,12.559 -31.782,25.462 -1.81,3.727 -0.256,8.214 3.47,10.022 3.726,1.81 8.213,0.257 10.023,-3.47 C 303.733,54.021 314.943,47 327.5,47 c 4.053,0 7.933,0.752 11.514,2.114 0.422,0.22 0.86,0.393 1.305,0.526 C 351.883,54.624 360,66.13 360,79.5 c 0,5.921 -1.577,11.627 -4.579,16.645 C 322.302,98.257 296,125.858 296,159.5 c 0,4.143 3.358,7.5 7.5,7.5 4.142,0 7.5,-3.357 7.5,-7.5 0,-26.743 21.757,-48.5 48.5,-48.5 26.743,0 48.5,21.757 48.5,48.5 0,6.244 -1.2,12.369 -3.567,18.205 -1.225,3.02 -0.36,6.484 2.14,8.574 11.075,9.257 17.427,22.825 17.427,37.221 0,26.743 -21.757,48.5 -48.5,48.5 -4.142,0 -7.5,3.357 -7.5,7.5 0,4.143 3.358,7.5 7.5,7.5 16.064,0 30.743,-6.008 41.939,-15.879 4.306,7.365 6.561,15.68 6.561,24.379 0,19.126 -11.32,36.518 -28.839,44.307 z"
             id="path4825" />
          <path
             style="fill:#000000;fill-opacity:1;stroke:#000000;stroke-width:1.03406644;stroke-miterlimit:4;stroke-dasharray:none;stroke-opacity:1"
             inkscape:connector-curvature="0"
             d="M 359.5,240 C 343.964,240 330.946,229.039 327.755,214.446 358.881,210.384 383,183.715 383,151.5 c 0,-4.143 -3.358,-7.5 -7.5,-7.5 -4.142,0 -7.5,3.357 -7.5,7.5 0,26.743 -21.757,48.5 -48.5,48.5 -13.143,0 -25.447,-5.171 -34.646,-14.561 -2.898,-2.958 -7.647,-3.007 -10.606,-0.108 -2.959,2.899 -3.008,7.647 -0.109,10.606 10.402,10.617 23.839,17.103 38.395,18.677 3.444,22.829 23.192,40.386 46.966,40.386 4.142,0 7.5,-3.357 7.5,-7.5 0,-4.143 -3.358,-7.5 -7.5,-7.5 z"
             id="path4827" />
          <path
             style="fill:#000000;fill-opacity:1;stroke:#000000;stroke-width:1.03406644;stroke-miterlimit:4;stroke-dasharray:none;stroke-opacity:1"
             inkscape:connector-curvature="0"
             d="m 335.5,328 c -2.89,0 -5.73,0.212 -8.519,0.588 0.006,-0.363 0.019,-0.726 0.019,-1.088 0,-35.014 -28.486,-63.5 -63.5,-63.5 -4.142,0 -7.5,3.357 -7.5,7.5 0,4.143 3.358,7.5 7.5,7.5 26.743,0 48.5,21.757 48.5,48.5 0,1.714 -0.091,3.434 -0.269,5.133 C 288.462,342.063 272,364.889 272,391.5 c 0,4.143 3.358,7.5 7.5,7.5 4.142,0 7.5,-3.357 7.5,-7.5 0,-26.743 21.757,-48.5 48.5,-48.5 4.142,0 7.5,-3.357 7.5,-7.5 0,-4.143 -3.358,-7.5 -7.5,-7.5 z"
             id="path4829" />
        </g>
      </g>
      <g
         id="g4833"
         style="fill:#000000;fill-opacity:1;stroke:#000000;stroke-width:1.03406644;stroke-miterlimit:4;stroke-dasharray:none;stroke-opacity:1" />
      <g
         id="g4835"
         style="fill:#000000;fill-opacity:1;stroke:#000000;stroke-width:1.03406644;stroke-miterlimit:4;stroke-dasharray:none;stroke-opacity:1" />
      <g
         id="g4837"
         style="fill:#000000;fill-opacity:1;stroke:#000000;stroke-width:1.03406644;stroke-miterlimit:4;stroke-dasharray:none;stroke-opacity:1" />
      <g
         id="g4839"
         style="fill:#000000;fill-opacity:1;stroke:#000000;stroke-width:1.03406644;stroke-miterlimit:4;stroke-dasharray:none;stroke-opacity:1" />
      <g
         id="g4841"
         style="fill:#000000;fill-opacity:1;stroke:#000000;stroke-width:1.03406644;stroke-miterlimit:4;stroke-dasharray:none;stroke-opacity:1" />
      <g
         id="g4843"
         style="fill:#000000;fill-opacity:1;stroke:#000000;stroke-width:1.03406644;stroke-miterlimit:4;stroke-dasharray:none;stroke-opacity:1" />
      <g
         id="g4845"
         style="fill:#000000;fill-opacity:1;stroke:#000000;stroke-width:1.03406644;stroke-miterlimit:4;stroke-dasharray:none;stroke-opacity:1" />
      <g
         id="g4847"
         style="fill:#000000;fill-opacity:1;stroke:#000000;stroke-width:1.03406644;stroke-miterlimit:4;stroke-dasharray:none;stroke-opacity:1" />
      <g
         id="g4849"
         style="fill:#000000;fill-opacity:1;stroke:#000000;stroke-width:1.03406644;stroke-miterlimit:4;stroke-dasharray:none;stroke-opacity:1" />
      <g
         id="g4851"
         style="fill:#000000;fill-opacity:1;stroke:#000000;stroke-width:1.03406644;stroke-miterlimit:4;stroke-dasharray:none;stroke-opacity:1" />
      <g
         id="g4853"
         style="fill:#000000;fill-opacity:1;stroke:#000000;stroke-width:1.03406644;stroke-miterlimit:4;stroke-dasharray:none;stroke-opacity:1" />
      <g
         id="g4855"
         style="fill:#000000;fill-opacity:1;stroke:#000000;stroke-width:1.03406644;stroke-miterlimit:4;stroke-dasharray:none;stroke-opacity:1" />
      <g
         id="g4857"
         style="fill:#000000;fill-opacity:1;stroke:#000000;stroke-width:1.03406644;stroke-miterlimit:4;stroke-dasharray:none;stroke-opacity:1" />
      <g
         id="g4859"
         style="fill:#000000;fill-opacity:1;stroke:#000000;stroke-width:1.03406644;stroke-miterlimit:4;stroke-dasharray:none;stroke-opacity:1" />
      <g
         id="g4861"
         style="fill:#000000;fill-opacity:1;stroke:#000000;stroke-width:1.03406644;stroke-miterlimit:4;stroke-dasharray:none;stroke-opacity:1" />
    </g>
    <text
       xml:space="preserve"
       style="font-style:normal;font-variant:normal;font-weight:normal;font-stretch:normal;font-size:4.23333311px;line-height:0.40000001;font-family:Balthazar;-inkscape-font-specification:Balthazar;letter-spacing:0px;word-spacing:0px;fill:#ffb300;fill-opacity:1;stroke:none;stroke-width:0.26458332;"
       x="40.295864"
       y="45.088799"
       id="text5503"><tspan
         sodipodi:role="line"
         x="40.295864"
         y="45.088799"
         style="font-style:normal;font-variant:normal;font-weight:normal;font-stretch:normal;font-size:1.74272227px;line-height:0.40000001;font-family:Coda;-inkscape-font-specification:Coda;letter-spacing:0px;word-spacing:0px;fill:#ffb300;fill-opacity:1;stroke-width:0.26458332;"
         id="tspan5715">D<tspan
   style="fill:#ffb300;fill-opacity:1;"
   id="tspan5786">ata</tspan> A<tspan
   style="fill:#ffb300;fill-opacity:1;"
   id="tspan5792">nalytics,</tspan> M<tspan
   style="fill:#ffb300;fill-opacity:1;"
   id="tspan5798">obile and </tspan></tspan><tspan
         sodipodi:role="line"
         x="40.295864"
         y="47.075974"
         style="font-style:normal;font-variant:normal;font-weight:normal;font-stretch:normal;font-size:1.74272227px;line-height:0.40000001;font-family:Coda;-inkscape-font-specification:Coda;letter-spacing:0px;word-spacing:0px;fill:#ffb300;fill-opacity:1;stroke-width:0.26458332;"
         id="tspan5778">A<tspan
   style="fill:#ffb300;fill-opacity:1;"
   id="tspan5802">utonomous</tspan> S<tspan
   style="fill:#ffb300;fill-opacity:1;"
   id="tspan5800">ystems</tspan></tspan></text>
    <path
       style="fill:#232d33;fill-opacity:1;stroke:#232d33;stroke-width:0.0178964;stroke-miterlimit:4;stroke-dasharray:none;stroke-dashoffset:0;stroke-opacity:1"
       d="M 4.843431,8.4996875 C 4.7629649,8.4192212 4.7574984,8.271258 4.8325739,8.2058118 4.8629574,8.1793253 4.9659456,8.1477777 5.0614366,8.1357059 5.4106104,8.0915642 5.6927494,7.8945075 5.8338658,7.5962118 c 0.043938,-0.092877 0.079887,-0.1759898 0.079887,-0.1846953 0,-0.00871 -0.1171935,-0.051769 -0.26043,-0.095697 C 5.1221798,7.1529279 4.7328547,6.8261772 4.4945326,6.343276 4.3520253,6.0545201 4.3432689,6.0231273 4.3149363,5.6993981 4.2972644,5.4974793 4.3020848,5.4680018 4.3626857,5.4074009 4.5149161,5.2551705 4.7061128,5.3779751 4.7289488,5.6426495 4.7497065,5.8832364 4.7730774,5.9717689 4.8721645,6.185172 5.1212168,6.7215539 5.7844733,7.0614378 6.3703108,6.9528928 6.6187284,6.9068656 6.9039638,6.7704533 7.0915534,6.6079625 7.1750788,6.5356125 7.2647957,6.476417 7.2909241,6.476417 c 0.1508012,0 0.2621147,0.1711044 0.1932715,0.2970856 C 7.3608983,6.9991333 6.7102764,7.3658788 6.42999,7.3677419 6.3657641,7.3681687 6.2929809,7.4692756 6.2922516,7.5590812 6.2914574,7.6568961 6.1207334,7.9470831 5.9705686,8.1058603 5.7144252,8.3766942 5.4353488,8.5168895 5.0880773,8.5491834 4.9356965,8.5633539 4.899844,8.5561004 4.843431,8.4996875 Z"
       id="path5766"
       inkscape:connector-curvature="0"
       transform="matrix(0.26458333,0,0,0.26458333,40.294831,38.246695)" />
    <path
       style="fill:#232d33;fill-opacity:1;stroke:#232d33;stroke-width:0.0178964;stroke-miterlimit:4;stroke-dasharray:none;stroke-dashoffset:0;stroke-opacity:1"
       d="M 5.8582405,14.312758 C 5.3876426,14.18762 5.0170056,13.939475 4.7160197,13.548028 4.579787,13.37085 4.5334754,13.334318 4.3709738,13.275839 3.8354714,13.08313 3.3435523,12.506365 3.1852874,11.885647 3.1580876,11.778969 3.135467,11.56589 3.1350193,11.412138 L 3.1342053,11.132589 2.9756055,11.024987 C 2.235211,10.522668 1.9801804,9.4950843 2.3925112,8.6755516 L 2.5004276,8.4610612 2.3924073,8.2501972 C 2.0600117,7.6013361 2.1455744,6.8176323 2.6112272,6.2459362 2.7254302,6.1057257 2.7436711,6.0658976 2.7161809,6.0167755 2.6556083,5.9085383 2.6494722,5.3446787 2.7064091,5.1188244 2.8583029,4.5162999 3.335812,3.9904845 3.9107129,3.7926895 c 0.09875,-0.033975 0.1944984,-0.052531 0.2127739,-0.041237 0.021501,0.013288 0.025055,-7.63e-4 0.010069,-0.039815 C 4.0268072,3.4334551 4.03248,3.0052058 4.1469021,2.7041286 4.2330077,2.4775598 4.5036279,2.1848647 4.7952474,2.0028966 4.9005924,1.9371623 5.142082,1.7782875 5.331891,1.6498417 5.7400211,1.3736555 6.2102076,1.1431347 6.5972125,1.0294861 7.0473902,0.89728603 7.3376089,0.87789673 7.6190046,0.96122096 7.8119314,1.0183487 8.059861,1.169785 8.1517821,1.2866438 c 0.078319,0.099566 0.0972,0.0965 0.2259168,-0.036692 0.27592,-0.28551205 0.6058652,-0.38037346 1.1031551,-0.31716442 0.1836602,0.0233445 0.2491206,0.0378894 0.3551317,0.0789079 0.047745,0.018474 0.08681,0.025099 0.08681,0.014722 0,-0.010377 0.017757,-0.00537 0.039459,0.011129 0.021702,0.016498 0.1104853,0.055857 0.1972953,0.087463 0.270638,0.098536 0.682216,0.3172806 0.990075,0.5262032 0.162578,0.11033 0.389069,0.2596692 0.503313,0.3318647 0.618974,0.3911537 0.887094,1.0097942 0.702333,1.6205103 -0.0458,0.1513725 -0.04715,0.148432 0.07927,0.1721481 0.170234,0.031936 0.484756,0.1734897 0.651982,0.2934306 0.300474,0.2155123 0.555832,0.5955342 0.673216,1.0018731 0.06409,0.2218525 0.07318,0.6926859 0.01726,0.8936851 -0.03735,0.134242 -0.03655,0.1367219 0.09062,0.281199 0.259991,0.2953651 0.411459,0.7266943 0.411459,1.1716955 0,0.3189715 -0.06386,0.5850349 -0.204078,0.8502407 l -0.104311,0.1972954 0.105598,0.1988653 c 0.142585,0.26852 0.202791,0.5187528 0.202791,0.8428545 0,0.3156654 -0.05755,0.5679722 -0.193062,0.8464502 -0.104177,0.214081 -0.388169,0.540452 -0.594992,0.68378 l -0.127397,0.08829 V 11.3434 c 0,0.53502 -0.20392,1.063015 -0.558441,1.445931 -0.112797,0.121831 -0.217248,0.22151 -0.232114,0.22151 -0.01487,0 -0.09077,0.04302 -0.16868,0.0956 -0.148037,0.09991 -0.430035,0.237181 -0.466946,0.227303 -0.01179,-0.0032 -0.08723,0.08646 -0.167633,0.199138 -0.266417,0.373351 -0.699008,0.665243 -1.168322,0.78833 -0.174077,0.04566 -0.6638042,0.06508 -0.8688971,0.03447 C 9.5549302,14.329162 9.1812012,14.176117 8.9901539,14.051645 8.76527,13.905127 8.4479135,13.583277 8.3372617,13.389509 c -0.039462,-0.0691 -0.082224,-0.125753 -0.095028,-0.125887 -0.012804,-1.26e-4 -0.061181,0.06013 -0.1075045,0.133918 -0.382011,0.608498 -1.0128885,0.964814 -1.7361189,0.980551 -0.1978359,0.0043 -0.3457374,-0.01358 -0.5403707,-0.06533 z m 0.9685999,-0.407343 c 0.2597061,-0.06723 0.469887,-0.19356 0.7004884,-0.421022 C 7.8740214,13.14242 8.0364959,12.738017 8.0156252,12.26901 7.9927541,11.755054 7.8576017,11.452206 7.498066,11.109267 7.3085146,10.928465 7.1712415,10.845543 6.8828764,10.737652 6.6888608,10.665062 6.6214559,10.569385 6.6715348,10.437668 c 0.040857,-0.107462 0.153446,-0.146272 0.3049266,-0.105109 0.2322921,0.06312 0.6060912,0.283504 0.8151779,0.480605 0.1143695,0.107814 0.2146638,0.189306 0.222876,0.181094 0.00821,-0.0082 0.014463,-1.209445 0.01389,-2.6694064 C 8.0276542,6.4122142 8.0171893,5.6372236 7.9909563,5.5517483 7.9138034,5.3003605 7.6653504,5.1007527 7.3887466,5.0679313 7.195203,5.0449658 7.113309,4.9816169 7.113309,4.8548674 c 0,-0.256169 0.2885456,-0.2909138 0.7016424,-0.084487 0.1057788,0.052858 0.1974142,0.096106 0.2036345,0.096106 0.00622,0 0.010518,-0.6703619 0.00955,-1.4896931 C 8.0261541,1.6984339 8.0312838,1.7377317 7.7854051,1.5162741 7.6084352,1.3568802 7.4746926,1.3196217 7.1610829,1.3423483 6.9122911,1.3603776 6.8675998,1.3680912 6.7423936,1.414613 6.7120101,1.4259023 6.6619523,1.4400703 6.631154,1.4460973 6.4745794,1.476738 5.7559165,1.8239676 5.7559165,1.8689776 c 0,0.010815 0.017757,0.019748 0.039459,0.019853 0.089135,4.278e-4 0.4250413,0.193666 0.5755117,0.3310768 0.088609,0.080918 0.2009298,0.2202924 0.249603,0.309721 0.077154,0.1417566 0.083789,0.173962 0.051769,0.251264 C 6.5838489,2.994335 6.3961755,2.9588852 6.244514,2.7000945 6.1636289,2.5620746 5.969017,2.3940312 5.8253199,2.338129 5.3385413,2.1487581 4.8276317,2.331981 4.5962826,2.7788874 4.5071717,2.9510267 4.4934581,3.0085636 4.4949425,3.2040711 c 0.00226,0.297331 0.079768,0.5086724 0.1885544,0.5141146 0.5241598,0.026222 1.1558979,0.4372413 1.4127608,0.9191649 0.1671291,0.3135665 0.218621,0.476703 0.244753,0.7754253 0.014945,0.170832 0.00973,0.1895719 -0.076916,0.2762136 C 6.1541956,5.7988887 6.1362591,5.8012784 6.0326967,5.7198162 5.9762951,5.6754509 5.9477896,5.6145479 5.932965,5.5067371 5.8877546,5.1779457 5.8749178,5.1278681 5.7869831,4.9372434 5.6299343,4.5967933 5.2358917,4.2563059 4.9185117,4.1868081 4.7330269,4.1461917 4.4858585,4.1136396 4.4504321,4.1251622 4.4305636,4.1316244 4.3645892,4.143928 4.3038222,4.1525036 3.96261,4.200656 3.7108703,4.3286875 3.4823866,4.5702755 3.1213776,4.9519891 2.9904194,5.5144582 3.154366,5.9791325 3.2227899,6.1730666 3.2102128,6.2316655 3.0710283,6.3674168 2.7629349,6.6679107 2.6314405,6.9941025 2.6427109,7.429923 c 0.00417,0.1613706 0.018247,0.3356245 0.031274,0.3872306 0.080761,0.3199125 0.4291009,0.7265649 0.7524613,0.8784233 0.1827305,0.085815 0.510926,0.1639834 0.5603217,0.1334551 0.043899,-0.027131 0.2098997,0.064618 0.2390784,0.1321396 0.045373,0.1049971 0.04058,0.1323978 -0.037985,0.2171717 -0.07462,0.080516 -0.088766,0.083635 -0.293158,0.064639 C 3.5831158,9.2140232 3.2937569,9.1144136 3.0538084,8.9535105 2.9380661,8.8758967 2.8327928,8.8123947 2.8198679,8.8123947 c -0.066479,0 -0.2012883,0.4685732 -0.1998036,0.6944799 0.00345,0.5252724 0.2858134,1.0020394 0.7478975,1.2628234 0.1990931,0.112361 0.2409817,0.167064 0.2174515,0.283973 -0.022795,0.113255 -0.021323,0.530644 0.00239,0.676744 0.036771,0.226583 0.2295814,0.577943 0.4339271,0.790748 0.1805479,0.188022 0.5288569,0.410808 0.6804932,0.435259 0.1025096,0.01653 0.1551462,0.06454 0.2894588,0.264003 0.2279308,0.338496 0.6122937,0.616179 0.9731637,0.703061 0.1794855,0.04321 0.6645563,0.03304 0.8619982,-0.01807 z m 3.7115166,0.0092 c 0.05209,-0.01174 0.194823,-0.0701 0.317193,-0.129692 0.233201,-0.113565 0.501082,-0.363714 0.695562,-0.649519 0.07566,-0.111195 0.128318,-0.152145 0.236755,-0.184131 0.357251,-0.10538 0.752516,-0.434919 0.935539,-0.779976 0.153842,-0.29004 0.198698,-0.504718 0.186599,-0.893045 -0.0057,-0.184303 -0.004,-0.352825 0.004,-0.374492 0.0079,-0.02167 0.09776,-0.08382 0.199618,-0.138108 0.329066,-0.17539 0.630717,-0.573666 0.714323,-0.9431347 0.04696,-0.2075308 0.0209,-0.6032347 -0.05246,-0.7964734 -0.03777,-0.099502 -0.08184,-0.1890491 -0.09794,-0.1989947 -0.01609,-0.00995 -0.08975,0.0233 -0.163684,0.073879 -0.314115,0.2148872 -0.671599,0.3400262 -0.967223,0.3385801 -0.180761,-8.839e-4 -0.207932,-0.00962 -0.264542,-0.085048 -0.07593,-0.1011699 -0.0556,-0.2278888 0.04523,-0.2818483 0.03728,-0.019952 0.149155,-0.04127 0.248609,-0.047375 0.533212,-0.032726 1.062618,-0.4611959 1.220252,-0.9875984 0.05749,-0.1919703 0.07139,-0.5433443 0.0295,-0.7456908 C 13.781124,6.8768162 13.652345,6.6457081 13.456684,6.4298038 13.260421,6.2132359 13.24903,6.1856165 13.300329,6.050691 c 0.05417,-0.1424848 0.07385,-0.2771884 0.07385,-0.5055084 0,-0.2886763 -0.02444,-0.402227 -0.135975,-0.6318681 C 12.817155,4.0464417 11.639857,3.8601028 10.96048,4.552804 c -0.263394,0.2685595 -0.394546,0.5737957 -0.403708,0.939564 -0.0018,0.071675 -0.03193,0.134321 -0.09491,0.1972955 -0.110925,0.1109251 -0.133146,0.1129091 -0.237965,0.021247 -0.06888,-0.060237 -0.08118,-0.0974 -0.08095,-0.2446464 4.64e-4,-0.2943565 0.0285,-0.4004993 0.200151,-0.7576144 0.126178,-0.2625175 0.496857,-0.6403824 0.767026,-0.7818964 0.201863,-0.1057352 0.54618,-0.2101532 0.666639,-0.2021656 0.18735,0.012423 0.281008,-0.5709308 0.142085,-0.8849893 -0.146638,-0.331517 -0.481443,-0.5653118 -0.819719,-0.5724154 -0.34934,-0.00734 -0.56204,0.083391 -0.770149,0.3285083 -0.217042,0.255638 -0.304306,0.3451918 -0.3363644,0.3451918 -0.016356,0 -0.067167,-0.029442 -0.1129136,-0.065426 C 9.7615255,2.7824997 9.7696487,2.6484955 9.9057077,2.4464595 9.9657572,2.3572911 10.076429,2.2339071 10.151646,2.172273 10.286279,2.0619514 10.595358,1.9000747 10.672518,1.8994716 10.767644,1.8987282 10.694131,1.8337792 10.460714,1.7123425 10.212529,1.5832226 9.8687153,1.4423469 9.7272747,1.4118201 9.6872341,1.4031783 9.5976529,1.3814614 9.5282049,1.3635603 9.3636113,1.3211343 9.0171192,1.3288756 8.8968595,1.3776658 8.7035605,1.4560885 8.5391248,1.6399497 8.4771049,1.8470076 c -0.023131,0.077225 -0.047241,2.002771 -0.025777,2.0587052 0.00921,0.023992 0.0881,-3.277e-4 0.2307217,-0.071122 0.284601,-0.1412697 0.5508563,-0.1602097 0.6436597,-0.045786 0.1266059,0.1561 0.037598,0.2973894 -0.2108135,0.334641 -0.3254462,0.048804 -0.5817434,0.273608 -0.644882,0.5656412 -0.040983,0.1895586 -0.028322,7.792421 0.01328,7.974514 0.1365026,0.597476 0.5517267,1.040945 1.1553967,1.23399 0.1764358,0.05642 0.6824245,0.06601 0.8996665,0.01705 z"
       id="path5768"
       inkscape:connector-curvature="0"
       transform="matrix(0.26458333,0,0,0.26458333,40.294831,38.246695)" />
    <path
       style="fill:#232d33;fill-opacity:1;stroke:#232d33;stroke-width:0.0178964;stroke-miterlimit:4;stroke-dasharray:none;stroke-dashoffset:0;stroke-opacity:1"
       d="M 11.409053,8.1938362 C 11.0399,8.0228478 10.753794,7.6869232 10.650452,7.3031433 10.624486,7.2067116 10.591684,7.1596041 10.535673,7.1383088 10.49254,7.1219097 10.447088,7.1112641 10.434669,7.1146518 10.389701,7.1269181 10.061138,7.0033546 9.9042984,6.9151945 9.8159958,6.8655593 9.6774945,6.7666297 9.5965175,6.6953509 9.4166852,6.5370562 9.3946966,6.3976708 9.532462,6.2893045 c 0.045746,-0.035984 0.094163,-0.065426 0.1075917,-0.065426 0.013429,0 0.1032257,0.064198 0.1995481,0.1426613 0.1850592,0.1507484 0.4170542,0.2798478 0.5732782,0.3190153 0.05165,0.012949 0.243816,0.024461 0.427034,0.02558 0.322162,0.00197 0.340869,-0.00179 0.568492,-0.1143043 0.501384,-0.2478298 0.799346,-0.7095479 0.81617,-1.2647279 0.006,-0.1984169 0.25586,-0.2866365 0.376702,-0.1330111 0.06831,0.086838 0.06687,0.1479039 -0.01404,0.5986283 -0.0062,0.034724 -0.06743,0.1767767 -0.135994,0.3156727 -0.148704,0.3012493 -0.402916,0.5915435 -0.645605,0.7372413 -0.200118,0.1201403 -0.530079,0.25973 -0.643334,0.2721624 -0.126553,0.013892 -0.137426,0.055121 -0.05863,0.2223316 0.13137,0.2787802 0.411612,0.4986591 0.681592,0.5347803 0.3299,0.044138 0.378808,0.076005 0.378808,0.2468217 0,0.2150305 -0.365521,0.2475176 -0.755019,0.067106 z"
       id="path5770"
       inkscape:connector-curvature="0"
       transform="matrix(0.26458333,0,0,0.26458333,40.294831,38.246695)" />
    <path
       style="fill:#232d33;fill-opacity:1;stroke:#232d33;stroke-width:0.0178964;stroke-miterlimit:4;stroke-dasharray:none;stroke-dashoffset:0;stroke-opacity:1"
       d="m 9.513467,12.475512 c -0.055184,-0.0349 -0.092047,-0.323314 -0.058672,-0.45904 0.012808,-0.05209 0.030104,-0.133935 0.038434,-0.181886 0.00833,-0.04795 0.067602,-0.196243 0.1317134,-0.329536 0.1443236,-0.300061 0.5025866,-0.672213 0.7807746,-0.811044 l 0.183033,-0.09134 -0.0059,-0.208546 C 10.563228,9.7017992 10.037797,9.1150462 9.3764517,9.0469334 9.1517421,9.0237903 9.0172767,8.9773525 8.9899698,8.9134615 8.9103181,8.7270969 9.0111433,8.6245746 9.2773876,8.6212057 c 0.1032255,-0.00131 0.2341126,0.01185 0.2908603,0.029236 0.056748,0.017386 0.1098683,0.032916 0.1180459,0.034511 0.21443,0.041819 0.5412092,0.2422952 0.7733702,0.4744567 0.346722,0.3467218 0.542472,0.7669703 0.538541,1.1561756 l -0.0016,0.161582 0.178753,0.0041 c 0.195359,0.0045 0.278232,0.0535 0.302154,0.178641 0.0269,0.140738 -0.08789,0.217716 -0.370912,0.24871 -0.334364,0.03662 -0.622242,0.176308 -0.855313,0.415034 -0.247144,0.25314 -0.3344784,0.460077 -0.4085303,0.967998 -0.00941,0.06455 -0.038875,0.139127 -0.065476,0.165728 -0.053727,0.05373 -0.192413,0.06325 -0.2637811,0.01811 z"
       id="path5772"
       inkscape:connector-curvature="0"
       transform="matrix(0.26458333,0,0,0.26458333,40.294831,38.246695)" />
    <path
       style="fill:#232d33;fill-opacity:1;stroke:#232d33;stroke-width:0.0178964;stroke-miterlimit:4;stroke-dasharray:none;stroke-dashoffset:0;stroke-opacity:1"
       d="M 6.0326967,12.94872 C 5.9762953,12.904355 5.9477896,12.843452 5.9329651,12.735641 5.9215484,12.652614 5.904861,12.534965 5.8958818,12.474198 5.864291,12.260406 5.6711367,11.92139 5.4829011,11.749353 c -0.2481234,-0.22677 -0.450479,-0.32503 -0.7529208,-0.3656 -0.3427549,-0.04598 -0.4261581,-0.09205 -0.4261581,-0.23538 0,-0.119721 0.1035071,-0.20131 0.2620811,-0.206587 0.2191322,-0.0073 0.2200596,-0.0077 0.2030925,-0.09649 -0.022707,-0.118785 0.0874,-0.533138 0.2024754,-0.761953 C 5.1640641,9.7003937 5.563826,9.3432395 5.9722842,9.1891991 6.2052088,9.101357 6.2705317,9.0883786 6.50074,9.0842048 c 0.2266188,-0.00411 0.2968963,0.039656 0.2968963,0.184888 0,0.1334771 -0.08838,0.2102309 -0.2588897,0.2248326 -0.074636,0.00639 -0.1712143,0.019751 -0.2146193,0.029687 -0.043405,0.00994 -0.1140883,0.0253 -0.1570741,0.034142 -0.2952197,0.060723 -0.6738257,0.39921 -0.8415388,0.7523656 -0.098212,0.206806 -0.113131,0.269903 -0.117276,0.495986 l -0.00475,0.259036 0.203962,0.115865 c 0.3139958,0.178373 0.5691593,0.450034 0.7389796,0.786757 0.079182,0.157005 0.138343,0.285463 0.1314684,0.285463 -0.00687,0 0.00114,0.04617 0.017809,0.102593 0.01667,0.05643 0.037958,0.184395 0.047307,0.284375 0.015925,0.170301 0.011035,0.187744 -0.077434,0.276213 -0.1114636,0.111464 -0.1291406,0.113917 -0.2328836,0.03231 z"
       id="path5774"
       inkscape:connector-curvature="0"
       transform="matrix(0.26458333,0,0,0.26458333,40.294831,38.246695)" />
  </g>
</svg>
